<mxfile host="app.diagrams.net" modified="2021-04-05T15:50:50.086Z" agent="5.0 (Windows)" etag="kqjinqNqIFjXK7HatXxm" version="14.2.9" type="github" pages="2">
  <diagram id="8WrJlLbyAuJpoksodZJ5" name="UserInterface">
    <mxGraphModel dx="1673" dy="898" grid="1" gridSize="10" guides="1" tooltips="1" connect="1" arrows="1" fold="1" page="1" pageScale="1" pageWidth="827" pageHeight="1169" math="0" shadow="0">
      <root>
        <mxCell id="0" />
        <mxCell id="1" parent="0" />
        <mxCell id="uMBIApaBZ_D4Jtqg2Sx6-23" value="&lt;div&gt;DB&lt;/div&gt;" style="rounded=0;whiteSpace=wrap;html=1;verticalAlign=top;" vertex="1" parent="1">
          <mxGeometry x="920" y="830" width="500" height="310" as="geometry" />
        </mxCell>
        <mxCell id="uMBIApaBZ_D4Jtqg2Sx6-64" value="" style="shape=cylinder3;whiteSpace=wrap;html=1;boundedLbl=1;backgroundOutline=1;size=15;" vertex="1" parent="1">
          <mxGeometry x="1188" y="1012" width="190" height="100" as="geometry" />
        </mxCell>
        <mxCell id="uMBIApaBZ_D4Jtqg2Sx6-51" value="&lt;div&gt;WEB(Flask)×N&lt;/div&gt;&lt;div&gt;&lt;br&gt;&lt;/div&gt;" style="rounded=0;whiteSpace=wrap;html=1;verticalAlign=top;" vertex="1" parent="1">
          <mxGeometry x="630" y="840" width="240" height="300" as="geometry" />
        </mxCell>
        <mxCell id="uMBIApaBZ_D4Jtqg2Sx6-48" value="&lt;div&gt;WEB(Flask)×N&lt;/div&gt;&lt;div&gt;&lt;br&gt;&lt;/div&gt;" style="rounded=0;whiteSpace=wrap;html=1;verticalAlign=top;" vertex="1" parent="1">
          <mxGeometry x="620" y="830" width="240" height="300" as="geometry" />
        </mxCell>
        <mxCell id="uMBIApaBZ_D4Jtqg2Sx6-49" value="じゃんけん" style="shape=process;whiteSpace=wrap;html=1;backgroundOutline=1;" vertex="1" parent="1">
          <mxGeometry x="640" y="880" width="200" height="70" as="geometry" />
        </mxCell>
        <mxCell id="uMBIApaBZ_D4Jtqg2Sx6-50" value="&lt;div&gt;勝率&lt;/div&gt;" style="shape=process;whiteSpace=wrap;html=1;backgroundOutline=1;" vertex="1" parent="1">
          <mxGeometry x="640" y="1020" width="200" height="70" as="geometry" />
        </mxCell>
        <mxCell id="cD-Ktcyn87LeDn9y7hVb-48" value="&lt;div&gt;WEB(Apache)&lt;/div&gt;&lt;div&gt;&lt;br&gt;&lt;/div&gt;" style="rounded=0;whiteSpace=wrap;html=1;verticalAlign=top;" parent="1" vertex="1">
          <mxGeometry x="260" y="460" width="240" height="300" as="geometry" />
        </mxCell>
        <mxCell id="cD-Ktcyn87LeDn9y7hVb-49" value="じゃんけん" style="shape=process;whiteSpace=wrap;html=1;backgroundOutline=1;" parent="1" vertex="1">
          <mxGeometry x="280" y="510" width="200" height="70" as="geometry" />
        </mxCell>
        <mxCell id="cD-Ktcyn87LeDn9y7hVb-50" value="&lt;div&gt;勝率&lt;/div&gt;" style="shape=process;whiteSpace=wrap;html=1;backgroundOutline=1;" parent="1" vertex="1">
          <mxGeometry x="280" y="650" width="200" height="70" as="geometry" />
        </mxCell>
        <mxCell id="cD-Ktcyn87LeDn9y7hVb-3" value="&lt;div&gt;WEB(Flask)&lt;/div&gt;&lt;div&gt;&lt;br&gt;&lt;/div&gt;" style="rounded=0;whiteSpace=wrap;html=1;verticalAlign=top;" parent="1" vertex="1">
          <mxGeometry x="260" y="120" width="240" height="300" as="geometry" />
        </mxCell>
        <mxCell id="cD-Ktcyn87LeDn9y7hVb-4" value="&lt;div&gt;DB&lt;/div&gt;" style="rounded=0;whiteSpace=wrap;html=1;verticalAlign=top;" parent="1" vertex="1">
          <mxGeometry x="560" y="120" width="240" height="300" as="geometry" />
        </mxCell>
        <mxCell id="cD-Ktcyn87LeDn9y7hVb-5" value="&lt;div&gt;日付&lt;/div&gt;&lt;div&gt;名前&lt;/div&gt;&lt;div&gt;出した手&lt;/div&gt;&lt;div&gt;出てきた手&lt;/div&gt;&lt;div&gt;勝敗&lt;br&gt;&lt;/div&gt;" style="shape=cylinder3;whiteSpace=wrap;html=1;boundedLbl=1;backgroundOutline=1;size=15;" parent="1" vertex="1">
          <mxGeometry x="660" y="190" width="120" height="140" as="geometry" />
        </mxCell>
        <mxCell id="cD-Ktcyn87LeDn9y7hVb-6" value="じゃんけん" style="shape=process;whiteSpace=wrap;html=1;backgroundOutline=1;" parent="1" vertex="1">
          <mxGeometry x="280" y="170" width="200" height="70" as="geometry" />
        </mxCell>
        <mxCell id="cD-Ktcyn87LeDn9y7hVb-7" value="&lt;div&gt;勝率&lt;/div&gt;" style="shape=process;whiteSpace=wrap;html=1;backgroundOutline=1;" parent="1" vertex="1">
          <mxGeometry x="280" y="310" width="200" height="70" as="geometry" />
        </mxCell>
        <mxCell id="cD-Ktcyn87LeDn9y7hVb-9" value="Actor" style="shape=umlActor;verticalLabelPosition=bottom;verticalAlign=top;html=1;outlineConnect=0;" parent="1" vertex="1">
          <mxGeometry x="50" y="150" width="30" height="60" as="geometry" />
        </mxCell>
        <mxCell id="cD-Ktcyn87LeDn9y7hVb-10" value="Actor" style="shape=umlActor;verticalLabelPosition=bottom;verticalAlign=top;html=1;outlineConnect=0;" parent="1" vertex="1">
          <mxGeometry x="50" y="310" width="30" height="60" as="geometry" />
        </mxCell>
        <mxCell id="cD-Ktcyn87LeDn9y7hVb-11" value="" style="endArrow=classic;html=1;" parent="1" edge="1">
          <mxGeometry width="50" height="50" relative="1" as="geometry">
            <mxPoint x="90" y="180" as="sourcePoint" />
            <mxPoint x="270" y="180" as="targetPoint" />
          </mxGeometry>
        </mxCell>
        <mxCell id="cD-Ktcyn87LeDn9y7hVb-12" value="&lt;div&gt;手を選択する&lt;/div&gt;" style="edgeLabel;html=1;align=center;verticalAlign=middle;resizable=0;points=[];" parent="cD-Ktcyn87LeDn9y7hVb-11" vertex="1" connectable="0">
          <mxGeometry x="-0.3222" y="-1" relative="1" as="geometry">
            <mxPoint as="offset" />
          </mxGeometry>
        </mxCell>
        <mxCell id="cD-Ktcyn87LeDn9y7hVb-14" value="" style="endArrow=classic;html=1;" parent="1" edge="1">
          <mxGeometry width="50" height="50" relative="1" as="geometry">
            <mxPoint x="271" y="200" as="sourcePoint" />
            <mxPoint x="90" y="200" as="targetPoint" />
          </mxGeometry>
        </mxCell>
        <mxCell id="cD-Ktcyn87LeDn9y7hVb-15" value="勝敗" style="edgeLabel;html=1;align=center;verticalAlign=middle;resizable=0;points=[];" parent="cD-Ktcyn87LeDn9y7hVb-14" vertex="1" connectable="0">
          <mxGeometry x="-0.2707" y="2" relative="1" as="geometry">
            <mxPoint as="offset" />
          </mxGeometry>
        </mxCell>
        <mxCell id="cD-Ktcyn87LeDn9y7hVb-16" value="" style="endArrow=classic;html=1;" parent="1" edge="1">
          <mxGeometry width="50" height="50" relative="1" as="geometry">
            <mxPoint x="480" y="210" as="sourcePoint" />
            <mxPoint x="660" y="210" as="targetPoint" />
          </mxGeometry>
        </mxCell>
        <mxCell id="cD-Ktcyn87LeDn9y7hVb-17" value="記録" style="edgeLabel;html=1;align=center;verticalAlign=middle;resizable=0;points=[];" parent="cD-Ktcyn87LeDn9y7hVb-16" vertex="1" connectable="0">
          <mxGeometry x="-0.3222" y="-1" relative="1" as="geometry">
            <mxPoint as="offset" />
          </mxGeometry>
        </mxCell>
        <mxCell id="cD-Ktcyn87LeDn9y7hVb-18" value="" style="endArrow=classic;html=1;" parent="1" edge="1">
          <mxGeometry width="50" height="50" relative="1" as="geometry">
            <mxPoint x="90" y="340" as="sourcePoint" />
            <mxPoint x="270" y="340" as="targetPoint" />
          </mxGeometry>
        </mxCell>
        <mxCell id="cD-Ktcyn87LeDn9y7hVb-19" value="名前を入れる" style="edgeLabel;html=1;align=center;verticalAlign=middle;resizable=0;points=[];" parent="cD-Ktcyn87LeDn9y7hVb-18" vertex="1" connectable="0">
          <mxGeometry x="-0.3222" y="-1" relative="1" as="geometry">
            <mxPoint as="offset" />
          </mxGeometry>
        </mxCell>
        <mxCell id="cD-Ktcyn87LeDn9y7hVb-20" value="" style="endArrow=classic;html=1;" parent="1" edge="1">
          <mxGeometry width="50" height="50" relative="1" as="geometry">
            <mxPoint x="271" y="360" as="sourcePoint" />
            <mxPoint x="90" y="360" as="targetPoint" />
          </mxGeometry>
        </mxCell>
        <mxCell id="cD-Ktcyn87LeDn9y7hVb-21" value="勝率" style="edgeLabel;html=1;align=center;verticalAlign=middle;resizable=0;points=[];" parent="cD-Ktcyn87LeDn9y7hVb-20" vertex="1" connectable="0">
          <mxGeometry x="-0.2707" y="2" relative="1" as="geometry">
            <mxPoint as="offset" />
          </mxGeometry>
        </mxCell>
        <mxCell id="cD-Ktcyn87LeDn9y7hVb-22" value="" style="endArrow=classic;html=1;entryX=0;entryY=0.5;entryDx=0;entryDy=0;entryPerimeter=0;" parent="1" target="cD-Ktcyn87LeDn9y7hVb-5" edge="1">
          <mxGeometry width="50" height="50" relative="1" as="geometry">
            <mxPoint x="480" y="330" as="sourcePoint" />
            <mxPoint x="660" y="330" as="targetPoint" />
          </mxGeometry>
        </mxCell>
        <mxCell id="cD-Ktcyn87LeDn9y7hVb-23" value="Query" style="edgeLabel;html=1;align=center;verticalAlign=middle;resizable=0;points=[];" parent="cD-Ktcyn87LeDn9y7hVb-22" vertex="1" connectable="0">
          <mxGeometry x="-0.3222" y="-1" relative="1" as="geometry">
            <mxPoint as="offset" />
          </mxGeometry>
        </mxCell>
        <mxCell id="cD-Ktcyn87LeDn9y7hVb-24" value="" style="endArrow=classic;html=1;entryX=0;entryY=0.5;entryDx=0;entryDy=0;entryPerimeter=0;" parent="1" edge="1">
          <mxGeometry width="50" height="50" relative="1" as="geometry">
            <mxPoint x="662" y="290" as="sourcePoint" />
            <mxPoint x="482" y="360" as="targetPoint" />
          </mxGeometry>
        </mxCell>
        <mxCell id="cD-Ktcyn87LeDn9y7hVb-25" value="勝率" style="edgeLabel;html=1;align=center;verticalAlign=middle;resizable=0;points=[];" parent="cD-Ktcyn87LeDn9y7hVb-24" vertex="1" connectable="0">
          <mxGeometry x="-0.3222" y="-1" relative="1" as="geometry">
            <mxPoint as="offset" />
          </mxGeometry>
        </mxCell>
        <mxCell id="cD-Ktcyn87LeDn9y7hVb-27" value="&lt;div&gt;WEB(Flask)&lt;/div&gt;&lt;div&gt;&lt;br&gt;&lt;/div&gt;" style="rounded=0;whiteSpace=wrap;html=1;verticalAlign=top;" parent="1" vertex="1">
          <mxGeometry x="620" y="460" width="240" height="300" as="geometry" />
        </mxCell>
        <mxCell id="cD-Ktcyn87LeDn9y7hVb-28" value="&lt;div&gt;DB&lt;/div&gt;" style="rounded=0;whiteSpace=wrap;html=1;verticalAlign=top;" parent="1" vertex="1">
          <mxGeometry x="920" y="460" width="240" height="300" as="geometry" />
        </mxCell>
        <mxCell id="cD-Ktcyn87LeDn9y7hVb-29" value="&lt;div&gt;日付&lt;/div&gt;&lt;div&gt;名前&lt;/div&gt;&lt;div&gt;出した手&lt;/div&gt;&lt;div&gt;出てきた手&lt;/div&gt;&lt;div&gt;勝敗&lt;br&gt;&lt;/div&gt;" style="shape=cylinder3;whiteSpace=wrap;html=1;boundedLbl=1;backgroundOutline=1;size=15;" parent="1" vertex="1">
          <mxGeometry x="1020" y="530" width="120" height="140" as="geometry" />
        </mxCell>
        <mxCell id="cD-Ktcyn87LeDn9y7hVb-30" value="じゃんけん" style="shape=process;whiteSpace=wrap;html=1;backgroundOutline=1;" parent="1" vertex="1">
          <mxGeometry x="640" y="510" width="200" height="70" as="geometry" />
        </mxCell>
        <mxCell id="cD-Ktcyn87LeDn9y7hVb-31" value="&lt;div&gt;勝率&lt;/div&gt;" style="shape=process;whiteSpace=wrap;html=1;backgroundOutline=1;" parent="1" vertex="1">
          <mxGeometry x="640" y="650" width="200" height="70" as="geometry" />
        </mxCell>
        <mxCell id="cD-Ktcyn87LeDn9y7hVb-32" value="Actor" style="shape=umlActor;verticalLabelPosition=bottom;verticalAlign=top;html=1;outlineConnect=0;" parent="1" vertex="1">
          <mxGeometry x="50" y="490" width="30" height="60" as="geometry" />
        </mxCell>
        <mxCell id="cD-Ktcyn87LeDn9y7hVb-33" value="Actor" style="shape=umlActor;verticalLabelPosition=bottom;verticalAlign=top;html=1;outlineConnect=0;" parent="1" vertex="1">
          <mxGeometry x="50" y="650" width="30" height="60" as="geometry" />
        </mxCell>
        <mxCell id="cD-Ktcyn87LeDn9y7hVb-34" value="" style="endArrow=classic;html=1;" parent="1" edge="1">
          <mxGeometry width="50" height="50" relative="1" as="geometry">
            <mxPoint x="90" y="520" as="sourcePoint" />
            <mxPoint x="270" y="520" as="targetPoint" />
          </mxGeometry>
        </mxCell>
        <mxCell id="cD-Ktcyn87LeDn9y7hVb-35" value="&lt;div&gt;手を選択する&lt;/div&gt;" style="edgeLabel;html=1;align=center;verticalAlign=middle;resizable=0;points=[];" parent="cD-Ktcyn87LeDn9y7hVb-34" vertex="1" connectable="0">
          <mxGeometry x="-0.3222" y="-1" relative="1" as="geometry">
            <mxPoint as="offset" />
          </mxGeometry>
        </mxCell>
        <mxCell id="cD-Ktcyn87LeDn9y7hVb-36" value="" style="endArrow=classic;html=1;" parent="1" edge="1">
          <mxGeometry width="50" height="50" relative="1" as="geometry">
            <mxPoint x="271" y="540" as="sourcePoint" />
            <mxPoint x="90" y="540" as="targetPoint" />
          </mxGeometry>
        </mxCell>
        <mxCell id="cD-Ktcyn87LeDn9y7hVb-37" value="勝敗" style="edgeLabel;html=1;align=center;verticalAlign=middle;resizable=0;points=[];" parent="cD-Ktcyn87LeDn9y7hVb-36" vertex="1" connectable="0">
          <mxGeometry x="-0.2707" y="2" relative="1" as="geometry">
            <mxPoint as="offset" />
          </mxGeometry>
        </mxCell>
        <mxCell id="cD-Ktcyn87LeDn9y7hVb-38" value="" style="endArrow=classic;html=1;" parent="1" edge="1">
          <mxGeometry width="50" height="50" relative="1" as="geometry">
            <mxPoint x="840" y="550" as="sourcePoint" />
            <mxPoint x="1020.0000000000002" y="550" as="targetPoint" />
          </mxGeometry>
        </mxCell>
        <mxCell id="cD-Ktcyn87LeDn9y7hVb-39" value="記録" style="edgeLabel;html=1;align=center;verticalAlign=middle;resizable=0;points=[];" parent="cD-Ktcyn87LeDn9y7hVb-38" vertex="1" connectable="0">
          <mxGeometry x="-0.3222" y="-1" relative="1" as="geometry">
            <mxPoint as="offset" />
          </mxGeometry>
        </mxCell>
        <mxCell id="cD-Ktcyn87LeDn9y7hVb-40" value="" style="endArrow=classic;html=1;" parent="1" edge="1">
          <mxGeometry width="50" height="50" relative="1" as="geometry">
            <mxPoint x="90" y="680" as="sourcePoint" />
            <mxPoint x="270" y="680" as="targetPoint" />
          </mxGeometry>
        </mxCell>
        <mxCell id="cD-Ktcyn87LeDn9y7hVb-41" value="名前を入れる" style="edgeLabel;html=1;align=center;verticalAlign=middle;resizable=0;points=[];" parent="cD-Ktcyn87LeDn9y7hVb-40" vertex="1" connectable="0">
          <mxGeometry x="-0.3222" y="-1" relative="1" as="geometry">
            <mxPoint as="offset" />
          </mxGeometry>
        </mxCell>
        <mxCell id="cD-Ktcyn87LeDn9y7hVb-42" value="" style="endArrow=classic;html=1;" parent="1" edge="1">
          <mxGeometry width="50" height="50" relative="1" as="geometry">
            <mxPoint x="271" y="700" as="sourcePoint" />
            <mxPoint x="90" y="700" as="targetPoint" />
          </mxGeometry>
        </mxCell>
        <mxCell id="cD-Ktcyn87LeDn9y7hVb-43" value="勝率" style="edgeLabel;html=1;align=center;verticalAlign=middle;resizable=0;points=[];" parent="cD-Ktcyn87LeDn9y7hVb-42" vertex="1" connectable="0">
          <mxGeometry x="-0.2707" y="2" relative="1" as="geometry">
            <mxPoint as="offset" />
          </mxGeometry>
        </mxCell>
        <mxCell id="cD-Ktcyn87LeDn9y7hVb-44" value="" style="endArrow=classic;html=1;entryX=0;entryY=0.5;entryDx=0;entryDy=0;entryPerimeter=0;" parent="1" target="cD-Ktcyn87LeDn9y7hVb-29" edge="1">
          <mxGeometry width="50" height="50" relative="1" as="geometry">
            <mxPoint x="840" y="670" as="sourcePoint" />
            <mxPoint x="1020" y="670" as="targetPoint" />
          </mxGeometry>
        </mxCell>
        <mxCell id="cD-Ktcyn87LeDn9y7hVb-45" value="Query" style="edgeLabel;html=1;align=center;verticalAlign=middle;resizable=0;points=[];" parent="cD-Ktcyn87LeDn9y7hVb-44" vertex="1" connectable="0">
          <mxGeometry x="-0.3222" y="-1" relative="1" as="geometry">
            <mxPoint as="offset" />
          </mxGeometry>
        </mxCell>
        <mxCell id="cD-Ktcyn87LeDn9y7hVb-46" value="" style="endArrow=classic;html=1;entryX=0;entryY=0.5;entryDx=0;entryDy=0;entryPerimeter=0;" parent="1" edge="1">
          <mxGeometry width="50" height="50" relative="1" as="geometry">
            <mxPoint x="1022" y="630" as="sourcePoint" />
            <mxPoint x="842" y="700" as="targetPoint" />
          </mxGeometry>
        </mxCell>
        <mxCell id="cD-Ktcyn87LeDn9y7hVb-47" value="勝率" style="edgeLabel;html=1;align=center;verticalAlign=middle;resizable=0;points=[];" parent="cD-Ktcyn87LeDn9y7hVb-46" vertex="1" connectable="0">
          <mxGeometry x="-0.3222" y="-1" relative="1" as="geometry">
            <mxPoint as="offset" />
          </mxGeometry>
        </mxCell>
        <mxCell id="cD-Ktcyn87LeDn9y7hVb-51" value="" style="endArrow=classic;html=1;" parent="1" edge="1">
          <mxGeometry width="50" height="50" relative="1" as="geometry">
            <mxPoint x="490" y="520" as="sourcePoint" />
            <mxPoint x="626" y="519.9999999999998" as="targetPoint" />
          </mxGeometry>
        </mxCell>
        <mxCell id="cD-Ktcyn87LeDn9y7hVb-52" value="&lt;div&gt;手を出す&lt;/div&gt;" style="edgeLabel;html=1;align=center;verticalAlign=middle;resizable=0;points=[];" parent="cD-Ktcyn87LeDn9y7hVb-51" vertex="1" connectable="0">
          <mxGeometry x="-0.3222" y="-1" relative="1" as="geometry">
            <mxPoint as="offset" />
          </mxGeometry>
        </mxCell>
        <mxCell id="cD-Ktcyn87LeDn9y7hVb-53" value="" style="endArrow=classic;html=1;" parent="1" edge="1">
          <mxGeometry width="50" height="50" relative="1" as="geometry">
            <mxPoint x="627" y="539.9999999999998" as="sourcePoint" />
            <mxPoint x="490" y="540" as="targetPoint" />
          </mxGeometry>
        </mxCell>
        <mxCell id="cD-Ktcyn87LeDn9y7hVb-54" value="勝敗" style="edgeLabel;html=1;align=center;verticalAlign=middle;resizable=0;points=[];" parent="cD-Ktcyn87LeDn9y7hVb-53" vertex="1" connectable="0">
          <mxGeometry x="-0.2707" y="2" relative="1" as="geometry">
            <mxPoint as="offset" />
          </mxGeometry>
        </mxCell>
        <mxCell id="cD-Ktcyn87LeDn9y7hVb-55" value="" style="endArrow=classic;html=1;" parent="1" edge="1">
          <mxGeometry width="50" height="50" relative="1" as="geometry">
            <mxPoint x="490" y="680" as="sourcePoint" />
            <mxPoint x="626" y="679.9999999999998" as="targetPoint" />
          </mxGeometry>
        </mxCell>
        <mxCell id="cD-Ktcyn87LeDn9y7hVb-56" value="名前を入れる" style="edgeLabel;html=1;align=center;verticalAlign=middle;resizable=0;points=[];" parent="cD-Ktcyn87LeDn9y7hVb-55" vertex="1" connectable="0">
          <mxGeometry x="-0.3222" y="-1" relative="1" as="geometry">
            <mxPoint as="offset" />
          </mxGeometry>
        </mxCell>
        <mxCell id="cD-Ktcyn87LeDn9y7hVb-57" value="" style="endArrow=classic;html=1;" parent="1" edge="1">
          <mxGeometry width="50" height="50" relative="1" as="geometry">
            <mxPoint x="627" y="699.9999999999998" as="sourcePoint" />
            <mxPoint x="490" y="700" as="targetPoint" />
          </mxGeometry>
        </mxCell>
        <mxCell id="cD-Ktcyn87LeDn9y7hVb-58" value="勝率" style="edgeLabel;html=1;align=center;verticalAlign=middle;resizable=0;points=[];" parent="cD-Ktcyn87LeDn9y7hVb-57" vertex="1" connectable="0">
          <mxGeometry x="-0.2707" y="2" relative="1" as="geometry">
            <mxPoint as="offset" />
          </mxGeometry>
        </mxCell>
        <mxCell id="uMBIApaBZ_D4Jtqg2Sx6-22" value="LB" style="rounded=0;whiteSpace=wrap;html=1;verticalAlign=top;" vertex="1" parent="1">
          <mxGeometry x="260" y="830" width="240" height="300" as="geometry" />
        </mxCell>
        <mxCell id="uMBIApaBZ_D4Jtqg2Sx6-24" value="&lt;div&gt;【Master】&lt;br&gt;&lt;/div&gt;&lt;div&gt;日付,名前,出した手,出てきた手,勝敗&lt;br&gt;&lt;/div&gt;" style="shape=cylinder3;whiteSpace=wrap;html=1;boundedLbl=1;backgroundOutline=1;size=15;" vertex="1" parent="1">
          <mxGeometry x="1180" y="870" width="190" height="100" as="geometry" />
        </mxCell>
        <mxCell id="uMBIApaBZ_D4Jtqg2Sx6-25" value="&lt;div&gt;じゃんけん&lt;/div&gt;&lt;div&gt;受付&lt;br&gt;&lt;/div&gt;" style="shape=process;whiteSpace=wrap;html=1;backgroundOutline=1;" vertex="1" parent="1">
          <mxGeometry x="280" y="880" width="200" height="70" as="geometry" />
        </mxCell>
        <mxCell id="uMBIApaBZ_D4Jtqg2Sx6-26" value="&lt;div&gt;勝率&lt;/div&gt;&lt;div&gt;受付&lt;br&gt;&lt;/div&gt;" style="shape=process;whiteSpace=wrap;html=1;backgroundOutline=1;" vertex="1" parent="1">
          <mxGeometry x="280" y="1020" width="200" height="70" as="geometry" />
        </mxCell>
        <mxCell id="uMBIApaBZ_D4Jtqg2Sx6-27" value="Actor" style="shape=umlActor;verticalLabelPosition=bottom;verticalAlign=top;html=1;outlineConnect=0;" vertex="1" parent="1">
          <mxGeometry x="50" y="860" width="30" height="60" as="geometry" />
        </mxCell>
        <mxCell id="uMBIApaBZ_D4Jtqg2Sx6-28" value="Actor" style="shape=umlActor;verticalLabelPosition=bottom;verticalAlign=top;html=1;outlineConnect=0;" vertex="1" parent="1">
          <mxGeometry x="50" y="1020" width="30" height="60" as="geometry" />
        </mxCell>
        <mxCell id="uMBIApaBZ_D4Jtqg2Sx6-29" value="" style="endArrow=classic;html=1;" edge="1" parent="1">
          <mxGeometry width="50" height="50" relative="1" as="geometry">
            <mxPoint x="90" y="890" as="sourcePoint" />
            <mxPoint x="270" y="890" as="targetPoint" />
          </mxGeometry>
        </mxCell>
        <mxCell id="uMBIApaBZ_D4Jtqg2Sx6-30" value="&lt;div&gt;手を選択する&lt;/div&gt;" style="edgeLabel;html=1;align=center;verticalAlign=middle;resizable=0;points=[];" vertex="1" connectable="0" parent="uMBIApaBZ_D4Jtqg2Sx6-29">
          <mxGeometry x="-0.3222" y="-1" relative="1" as="geometry">
            <mxPoint as="offset" />
          </mxGeometry>
        </mxCell>
        <mxCell id="uMBIApaBZ_D4Jtqg2Sx6-31" value="" style="endArrow=classic;html=1;" edge="1" parent="1">
          <mxGeometry width="50" height="50" relative="1" as="geometry">
            <mxPoint x="271" y="910" as="sourcePoint" />
            <mxPoint x="90" y="910" as="targetPoint" />
          </mxGeometry>
        </mxCell>
        <mxCell id="uMBIApaBZ_D4Jtqg2Sx6-32" value="勝敗" style="edgeLabel;html=1;align=center;verticalAlign=middle;resizable=0;points=[];" vertex="1" connectable="0" parent="uMBIApaBZ_D4Jtqg2Sx6-31">
          <mxGeometry x="-0.2707" y="2" relative="1" as="geometry">
            <mxPoint as="offset" />
          </mxGeometry>
        </mxCell>
        <mxCell id="uMBIApaBZ_D4Jtqg2Sx6-33" value="" style="endArrow=classic;html=1;" edge="1" parent="1" target="uMBIApaBZ_D4Jtqg2Sx6-24">
          <mxGeometry width="50" height="50" relative="1" as="geometry">
            <mxPoint x="840" y="920" as="sourcePoint" />
            <mxPoint x="1020" y="920" as="targetPoint" />
          </mxGeometry>
        </mxCell>
        <mxCell id="uMBIApaBZ_D4Jtqg2Sx6-34" value="記録" style="edgeLabel;html=1;align=center;verticalAlign=middle;resizable=0;points=[];" vertex="1" connectable="0" parent="uMBIApaBZ_D4Jtqg2Sx6-33">
          <mxGeometry x="-0.3222" y="-1" relative="1" as="geometry">
            <mxPoint as="offset" />
          </mxGeometry>
        </mxCell>
        <mxCell id="uMBIApaBZ_D4Jtqg2Sx6-35" value="" style="endArrow=classic;html=1;" edge="1" parent="1">
          <mxGeometry width="50" height="50" relative="1" as="geometry">
            <mxPoint x="90" y="1050" as="sourcePoint" />
            <mxPoint x="270" y="1050" as="targetPoint" />
          </mxGeometry>
        </mxCell>
        <mxCell id="uMBIApaBZ_D4Jtqg2Sx6-36" value="名前を入れる" style="edgeLabel;html=1;align=center;verticalAlign=middle;resizable=0;points=[];" vertex="1" connectable="0" parent="uMBIApaBZ_D4Jtqg2Sx6-35">
          <mxGeometry x="-0.3222" y="-1" relative="1" as="geometry">
            <mxPoint as="offset" />
          </mxGeometry>
        </mxCell>
        <mxCell id="uMBIApaBZ_D4Jtqg2Sx6-37" value="" style="endArrow=classic;html=1;" edge="1" parent="1">
          <mxGeometry width="50" height="50" relative="1" as="geometry">
            <mxPoint x="271" y="1070" as="sourcePoint" />
            <mxPoint x="90" y="1070" as="targetPoint" />
          </mxGeometry>
        </mxCell>
        <mxCell id="uMBIApaBZ_D4Jtqg2Sx6-38" value="勝率" style="edgeLabel;html=1;align=center;verticalAlign=middle;resizable=0;points=[];" vertex="1" connectable="0" parent="uMBIApaBZ_D4Jtqg2Sx6-37">
          <mxGeometry x="-0.2707" y="2" relative="1" as="geometry">
            <mxPoint as="offset" />
          </mxGeometry>
        </mxCell>
        <mxCell id="uMBIApaBZ_D4Jtqg2Sx6-54" value="" style="endArrow=classic;html=1;entryX=0;entryY=0.5;entryDx=0;entryDy=0;exitX=1;exitY=0.5;exitDx=0;exitDy=0;" edge="1" parent="1" source="uMBIApaBZ_D4Jtqg2Sx6-25" target="uMBIApaBZ_D4Jtqg2Sx6-49">
          <mxGeometry width="50" height="50" relative="1" as="geometry">
            <mxPoint x="500" y="969.2900000000002" as="sourcePoint" />
            <mxPoint x="680" y="969.2900000000002" as="targetPoint" />
          </mxGeometry>
        </mxCell>
        <mxCell id="uMBIApaBZ_D4Jtqg2Sx6-55" value="振分" style="edgeLabel;html=1;align=center;verticalAlign=middle;resizable=0;points=[];" vertex="1" connectable="0" parent="uMBIApaBZ_D4Jtqg2Sx6-54">
          <mxGeometry x="-0.3222" y="-1" relative="1" as="geometry">
            <mxPoint as="offset" />
          </mxGeometry>
        </mxCell>
        <mxCell id="uMBIApaBZ_D4Jtqg2Sx6-58" value="" style="endArrow=classic;html=1;entryX=0;entryY=0.5;entryDx=0;entryDy=0;exitX=1;exitY=0.5;exitDx=0;exitDy=0;" edge="1" parent="1" source="uMBIApaBZ_D4Jtqg2Sx6-26" target="uMBIApaBZ_D4Jtqg2Sx6-50">
          <mxGeometry width="50" height="50" relative="1" as="geometry">
            <mxPoint x="480" y="1010.0000000000002" as="sourcePoint" />
            <mxPoint x="640" y="1010.0000000000002" as="targetPoint" />
          </mxGeometry>
        </mxCell>
        <mxCell id="uMBIApaBZ_D4Jtqg2Sx6-59" value="振分" style="edgeLabel;html=1;align=center;verticalAlign=middle;resizable=0;points=[];" vertex="1" connectable="0" parent="uMBIApaBZ_D4Jtqg2Sx6-58">
          <mxGeometry x="-0.3222" y="-1" relative="1" as="geometry">
            <mxPoint as="offset" />
          </mxGeometry>
        </mxCell>
        <mxCell id="uMBIApaBZ_D4Jtqg2Sx6-61" value="&lt;div&gt;【Slave】&lt;br&gt;&lt;/div&gt;&lt;div&gt;日付,名前,出した手,出てきた手,勝敗&lt;br&gt;&lt;/div&gt;" style="shape=cylinder3;whiteSpace=wrap;html=1;boundedLbl=1;backgroundOutline=1;size=15;" vertex="1" parent="1">
          <mxGeometry x="1180" y="1000" width="190" height="100" as="geometry" />
        </mxCell>
        <mxCell id="uMBIApaBZ_D4Jtqg2Sx6-62" value="" style="endArrow=classic;html=1;exitX=0.5;exitY=1;exitDx=0;exitDy=0;exitPerimeter=0;" edge="1" parent="1" source="uMBIApaBZ_D4Jtqg2Sx6-24" target="uMBIApaBZ_D4Jtqg2Sx6-61">
          <mxGeometry width="50" height="50" relative="1" as="geometry">
            <mxPoint x="1420" y="993.75" as="sourcePoint" />
            <mxPoint x="1600" y="986.25" as="targetPoint" />
          </mxGeometry>
        </mxCell>
        <mxCell id="uMBIApaBZ_D4Jtqg2Sx6-63" value="Replication" style="edgeLabel;html=1;align=center;verticalAlign=middle;resizable=0;points=[];" vertex="1" connectable="0" parent="uMBIApaBZ_D4Jtqg2Sx6-62">
          <mxGeometry x="-0.3222" y="-1" relative="1" as="geometry">
            <mxPoint as="offset" />
          </mxGeometry>
        </mxCell>
        <mxCell id="uMBIApaBZ_D4Jtqg2Sx6-65" value="&lt;div&gt;MySQL&lt;/div&gt;&lt;div&gt;Router&lt;br&gt;&lt;/div&gt;" style="shape=process;whiteSpace=wrap;html=1;backgroundOutline=1;" vertex="1" parent="1">
          <mxGeometry x="1000" y="1020" width="130" height="70" as="geometry" />
        </mxCell>
        <mxCell id="uMBIApaBZ_D4Jtqg2Sx6-39" value="" style="endArrow=classic;html=1;entryX=0;entryY=0;entryDx=0;entryDy=32.5;entryPerimeter=0;" edge="1" parent="1" target="uMBIApaBZ_D4Jtqg2Sx6-61">
          <mxGeometry width="50" height="50" relative="1" as="geometry">
            <mxPoint x="840" y="1040" as="sourcePoint" />
            <mxPoint x="1020" y="1040" as="targetPoint" />
          </mxGeometry>
        </mxCell>
        <mxCell id="uMBIApaBZ_D4Jtqg2Sx6-40" value="Query" style="edgeLabel;html=1;align=center;verticalAlign=middle;resizable=0;points=[];" vertex="1" connectable="0" parent="uMBIApaBZ_D4Jtqg2Sx6-39">
          <mxGeometry x="-0.3222" y="-1" relative="1" as="geometry">
            <mxPoint as="offset" />
          </mxGeometry>
        </mxCell>
        <mxCell id="uMBIApaBZ_D4Jtqg2Sx6-41" value="" style="endArrow=classic;html=1;entryX=0;entryY=0.5;entryDx=0;entryDy=0;entryPerimeter=0;exitX=0;exitY=0;exitDx=0;exitDy=67.5;exitPerimeter=0;" edge="1" parent="1" source="uMBIApaBZ_D4Jtqg2Sx6-61">
          <mxGeometry width="50" height="50" relative="1" as="geometry">
            <mxPoint x="1022" y="1000" as="sourcePoint" />
            <mxPoint x="842" y="1070" as="targetPoint" />
          </mxGeometry>
        </mxCell>
        <mxCell id="uMBIApaBZ_D4Jtqg2Sx6-42" value="勝率" style="edgeLabel;html=1;align=center;verticalAlign=middle;resizable=0;points=[];" vertex="1" connectable="0" parent="uMBIApaBZ_D4Jtqg2Sx6-41">
          <mxGeometry x="-0.3222" y="-1" relative="1" as="geometry">
            <mxPoint as="offset" />
          </mxGeometry>
        </mxCell>
      </root>
    </mxGraphModel>
  </diagram>
  <diagram id="J8M8x5xchCJj_Gmutmwf" name="SystemArchitecture">
    <mxGraphModel dx="771" dy="896" grid="1" gridSize="10" guides="1" tooltips="1" connect="1" arrows="1" fold="1" page="1" pageScale="1" pageWidth="827" pageHeight="1169" math="0" shadow="0">
      <root>
        <mxCell id="TNbNGaETSgwvBp8v5djL-0" />
        <mxCell id="TNbNGaETSgwvBp8v5djL-1" parent="TNbNGaETSgwvBp8v5djL-0" />
        <mxCell id="-SolNgXCFaX4APKrsFQg-0" value="&lt;div&gt;WEB(Flask)SV&lt;/div&gt;" style="rounded=0;whiteSpace=wrap;html=1;verticalAlign=top;" vertex="1" parent="TNbNGaETSgwvBp8v5djL-1">
          <mxGeometry x="170" y="180" width="150" height="180" as="geometry" />
        </mxCell>
        <mxCell id="-SolNgXCFaX4APKrsFQg-1" value="&lt;div&gt;DB SV&lt;/div&gt;" style="rounded=0;whiteSpace=wrap;html=1;verticalAlign=top;" vertex="1" parent="TNbNGaETSgwvBp8v5djL-1">
          <mxGeometry x="420" y="180" width="150" height="180" as="geometry" />
        </mxCell>
        <mxCell id="-SolNgXCFaX4APKrsFQg-2" value="&lt;div&gt;SQL&lt;/div&gt;" style="endArrow=classic;html=1;exitX=1;exitY=0.5;exitDx=0;exitDy=0;" edge="1" parent="TNbNGaETSgwvBp8v5djL-1" source="-SolNgXCFaX4APKrsFQg-0" target="-SolNgXCFaX4APKrsFQg-1">
          <mxGeometry width="50" height="50" relative="1" as="geometry">
            <mxPoint x="320" y="400" as="sourcePoint" />
            <mxPoint x="370" y="350" as="targetPoint" />
          </mxGeometry>
        </mxCell>
        <mxCell id="XSRbgmMMii-CPWS3cRCl-0" value="" style="shape=cylinder3;whiteSpace=wrap;html=1;boundedLbl=1;backgroundOutline=1;size=15;" vertex="1" parent="TNbNGaETSgwvBp8v5djL-1">
          <mxGeometry x="465" y="230" width="60" height="80" as="geometry" />
        </mxCell>
        <mxCell id="XSRbgmMMii-CPWS3cRCl-1" value="SQL log" style="shape=document;whiteSpace=wrap;html=1;boundedLbl=1;" vertex="1" parent="TNbNGaETSgwvBp8v5djL-1">
          <mxGeometry x="414" y="270" width="60" height="40" as="geometry" />
        </mxCell>
        <mxCell id="XSRbgmMMii-CPWS3cRCl-2" value="access log" style="shape=document;whiteSpace=wrap;html=1;boundedLbl=1;" vertex="1" parent="TNbNGaETSgwvBp8v5djL-1">
          <mxGeometry x="190" y="270" width="60" height="40" as="geometry" />
        </mxCell>
        <mxCell id="XSRbgmMMii-CPWS3cRCl-3" value="&lt;div&gt;Table&lt;/div&gt;" style="shape=document;whiteSpace=wrap;html=1;boundedLbl=1;" vertex="1" parent="TNbNGaETSgwvBp8v5djL-1">
          <mxGeometry x="465" y="350" width="60" height="40" as="geometry" />
        </mxCell>
        <mxCell id="XSRbgmMMii-CPWS3cRCl-4" value="DB dump" style="endArrow=classic;html=1;exitX=0.635;exitY=0.999;exitDx=0;exitDy=0;exitPerimeter=0;" edge="1" parent="TNbNGaETSgwvBp8v5djL-1" source="XSRbgmMMii-CPWS3cRCl-0" target="XSRbgmMMii-CPWS3cRCl-3">
          <mxGeometry width="50" height="50" relative="1" as="geometry">
            <mxPoint x="320" y="400" as="sourcePoint" />
            <mxPoint x="370" y="350" as="targetPoint" />
          </mxGeometry>
        </mxCell>
        <mxCell id="XSRbgmMMii-CPWS3cRCl-5" value="Elastic Search SV" style="rounded=0;whiteSpace=wrap;html=1;verticalAlign=top;" vertex="1" parent="TNbNGaETSgwvBp8v5djL-1">
          <mxGeometry x="420" y="490" width="150" height="180" as="geometry" />
        </mxCell>
        <mxCell id="XSRbgmMMii-CPWS3cRCl-6" value="Table" style="shape=document;whiteSpace=wrap;html=1;boundedLbl=1;" vertex="1" parent="TNbNGaETSgwvBp8v5djL-1">
          <mxGeometry x="465" y="520" width="60" height="40" as="geometry" />
        </mxCell>
        <mxCell id="XSRbgmMMii-CPWS3cRCl-7" value="SQL log" style="shape=document;whiteSpace=wrap;html=1;boundedLbl=1;" vertex="1" parent="TNbNGaETSgwvBp8v5djL-1">
          <mxGeometry x="450" y="550" width="60" height="40" as="geometry" />
        </mxCell>
        <mxCell id="XSRbgmMMii-CPWS3cRCl-8" value="access log" style="shape=document;whiteSpace=wrap;html=1;boundedLbl=1;" vertex="1" parent="TNbNGaETSgwvBp8v5djL-1">
          <mxGeometry x="430" y="580" width="60" height="40" as="geometry" />
        </mxCell>
        <mxCell id="XSRbgmMMii-CPWS3cRCl-10" value="" style="shape=flexArrow;endArrow=classic;html=1;" edge="1" parent="TNbNGaETSgwvBp8v5djL-1" target="XSRbgmMMii-CPWS3cRCl-5">
          <mxGeometry width="50" height="50" relative="1" as="geometry">
            <mxPoint x="431" y="370" as="sourcePoint" />
            <mxPoint x="370" y="420" as="targetPoint" />
            <Array as="points">
              <mxPoint x="470" y="420" />
            </Array>
          </mxGeometry>
        </mxCell>
      </root>
    </mxGraphModel>
  </diagram>
</mxfile>
